:SAMPLES-PER-SECOND 25
:FULLY-SPECIFIED
:DEGREES
644
root  19.6624 39.9519 -96.5592 3.69756 -54.0709 -4.44331
RightUpLeg  -8.24118 0.977291 3.08644
RightLeg  11.6056 -32.5106 -7.93282
RightFoot  -2.41154 0.155443 -2.19913
RightToes  2.84633e-005 7.89722e-005 -0.000426369
Spine  1.46966 -0.340252 3.13612
Spine1  2.91686 -0.746091 4.63482
HEad  31.0277 -0.422902 -6.37409
LeftShoulder1  -3.88251e-019 0 -3.92111e-022
LeftArm  -33.2803 0.290881 -85.4066
LeftForeArm  37.8693 2.06476 -0.897659
LeftHand  -0.780942 -4.58765 9.36428
RightShoulder  7.45443e-017 -2.42657e-020 1.96277e-018
RightArm  -27.2689 -19.6775 67.9095
RightForeArm  36.4025 3.28138 7.84108
RightHand  -0.963191 9.51488 -7.86701
LeftUpLeg  -10.8396 7.76269 0.682454
LeftLeg  23.5646 14.6686 7.22523
LeftFoot  -11.7613 0.0935067 5.70452
LeftToes  3.91355e-005 3.11907e-005 -4.10385e-006
645
root  19.7861 40.0127 -96.9869 3.30504 -47.2422 -4.00742
RightUpLeg  -7.92725 0.782123 3.06492
RightLeg  11.3032 -38.6619 -8.53523
RightFoot  -1.54329 0.236853 -2.88268
RightToes  2.84633e-005 7.89722e-005 -0.000426369
Spine  1.37599 -0.374658 3.18116
Spine1  2.71507 -0.785594 4.62451
HEad  30.8204 -1.51924 -6.11359
LeftShoulder1  -3.88251e-019 0 -3.92111e-022
LeftArm  -33.5925 0.366391 -84.325
LeftForeArm  36.4801 2.06018 -0.578396
LeftHand  -0.78759 -4.43449 9.5799
RightShoulder  7.45443e-017 -2.42657e-020 1.96277e-018
RightArm  -27.3998 -20.1238 67.3833
RightForeArm  36.0599 3.21598 7.62088
RightHand  -0.927879 9.61413 -7.54868
LeftUpLeg  -9.25192 9.02617 1.66283
LeftLeg  24.5732 17.9555 9.07413
LeftFoot  -13.4045 0.214554 7.43669
LeftToes  3.91355e-005 3.11907e-005 -4.10385e-006
646
root  19.9709 40.0758 -97.2789 3.00253 -41.0482 -3.38193
RightUpLeg  -8.00745 0.235941 2.35459
RightLeg  11.5385 -43.9912 -9.00652
RightFoot  -0.82022 0.334848 -3.69344
RightToes  2.84633e-005 7.89722e-005 -0.000426369
Spine  1.2332 -0.365253 2.95529
Spine1  2.42813 -0.755198 4.44145
HEad  30.5295 -2.08432 -5.57399
LeftShoulder1  -3.88251e-019 0 -3.92111e-022
LeftArm  -33.8431 0.301968 -83.3072
LeftForeArm  35.7714 2.01015 0.000112259
LeftHand  -0.779529 -4.30869 9.60033
RightShoulder  7.45443e-017 -2.42657e-020 1.96277e-018
RightArm  -27.1451 -20.1873 66.9328
RightForeArm  36.4569 3.20706 7.45797
RightHand  -1.0113 9.71773 -8.13666
LeftUpLeg  -7.0534 10.0717 2.05239
LeftLeg  21.7788 19.9897 8.86421
LeftFoot  -12.382 0.132024 6.32455
LeftToes  3.91355e-005 3.11907e-005 -4.10385e-006
647
root  20.2393 40.1397 -97.4736 3.07926 -35.7653 -2.91934
RightUpLeg  -8.27527 -0.523442 1.30681
RightLeg  11.6082 -48.3885 -8.9783
RightFoot  -0.166124 0.377536 -3.86876
RightToes  2.84633e-005 7.89722e-005 -0.000426369
Spine  0.938526 -0.272954 2.5798
Spine1  1.85216 -0.572985 4.26387
HEad  30.0775 -1.78284 -4.80935
LeftShoulder1  -3.88251e-019 0 -3.92111e-022
LeftArm  -34.2491 0.757445 -82.4813
LeftForeArm  35.7004 1.92838 0.818695
LeftHand  -0.779729 -4.33321 9.57995
RightShoulder  7.45443e-017 -2.42657e-020 1.96277e-018
RightArm  -26.9242 -20.2575 66.3342
RightForeArm  37.0728 3.42309 7.80547
RightHand  -1.16388 9.5081 -9.42267
LeftUpLeg  -4.45028 8.87326 2.37926
LeftLeg  15.1393 21.1395 5.57926
LeftFoot  -9.70832 0.0339126 1.76909
LeftToes  3.91355e-005 3.11907e-005 -4.10385e-006
648
root  20.5856 40.2144 -97.6256 3.30389 -31.2978 -2.69994
RightUpLeg  -8.30655 -1.28039 0.247466
RightLeg  10.9018 -51.6337 -8.06654
RightFoot  0.584148 0.35985 -3.40536
RightToes  2.84633e-005 7.89722e-005 -0.000426369
Spine  0.645209 -0.235484 2.19707
Spine1  1.2796 -0.492654 4.1328
HEad  29.7916 -1.64632 -4.48813
LeftShoulder1  -3.88251e-019 0 -3.92111e-022
LeftArm  -34.8955 2.08336 -81.7816
LeftForeArm  35.2957 1.88952 1.40192
LeftHand  -0.802476 -4.13862 10.0409
RightShoulder  7.45443e-017 -2.42657e-020 1.96277e-018
RightArm  -26.8518 -19.9977 65.7929
RightForeArm  37.0449 3.84719 8.55392
RightHand  -1.28108 9.19927 -10.5305
LeftUpLeg  -2.47036 3.76192 2.50108
LeftLeg  8.09449 22.8756 1.7699
LeftFoot  -7.29438 0.0890026 -1.36471
LeftToes  3.91355e-005 3.11907e-005 -4.10385e-006
649
root  20.9934 40.3037 -97.7376 3.13399 -27.4666 -2.34157
RightUpLeg  -7.95099 -2.12161 -1.04149
RightLeg  10.2231 -54.5184 -7.20066
RightFoot  1.46338 0.390915 -3.38772
RightToes  2.84633e-005 7.89722e-005 -0.000426369
Spine  0.668644 -0.232789 1.93961
Spine1  1.33499 -0.477893 4.07103
HEad  29.4144 -2.19741 -4.99452
LeftShoulder1  -3.88251e-019 0 -3.92111e-022
LeftArm  -35.4667 3.2849 -81.649
LeftForeArm  34.1255 1.89921 1.69367
LeftHand  -0.800367 -3.96273 10.1905
RightShoulder  7.45443e-017 -2.42657e-020 1.96277e-018
RightArm  -26.6387 -18.9955 65.4611
RightForeArm  35.7933 4.52833 8.95777
RightHand  -1.3278 9.24904 -10.8642
LeftUpLeg  -1.45323 1.85054 1.17711
LeftLeg  3.35314 20.5795 1.00052
LeftFoot  -5.21672 0.0697166 -0.767595
LeftToes  3.91355e-005 3.11907e-005 -4.10385e-006
650
root  21.4237 40.3633 -97.7972 2.86339 -24.3118 -2.04388
RightUpLeg  -7.39882 -2.93954 -2.33029
RightLeg  9.27812 -56.6288 -6.11527
RightFoot  2.04551 0.393928 -3.2406
RightToes  2.84633e-005 7.89722e-005 -0.000426369
Spine  0.864241 -0.104061 1.89426
Spine1  1.73462 -0.220099 4.23595
HEad  28.7049 -2.86169 -5.74361
LeftShoulder1  -3.88251e-019 0 -3.92111e-022
LeftArm  -35.7923 4.02805 -82.1244
LeftForeArm  33.3492 1.89762 2.05296
LeftHand  -0.771369 -4.13119 9.67033
RightShoulder  7.45443e-017 -2.42657e-020 1.96277e-018
RightArm  -25.9736 -18.0431 65.2408
RightForeArm  33.4575 6.02268 9.27861
RightHand  -1.30607 9.32632 -10.6406
LeftUpLeg  -0.773838 0.849139 -0.353479
LeftLeg  0.513312 18.6002 1.37048
LeftFoot  -3.15365 -0.0239735 0.589083
LeftToes  3.91355e-005 3.11907e-005 -4.10385e-006
